REM DIRINDEX 1\3,1\2\4,1\2\5,1\2\6
REM DIRNAME cjc137,folder01,folder02,folder03,folder04,folder05
TITLE ""
FILE "086.mp3" MP3
  TRACK 01 AUDIO
    TITLE "0:"
    INDEX 01 00:00:00
  TRACK 02 AUDIO
    TITLE "4:cjc137_3531"
    INDEX 01 00:00:05
  TRACK 03 AUDIO
    TITLE "0:"
    INDEX 01 00:01:30
  TRACK 04 AUDIO
    TITLE "6:cjc137_3532"
    INDEX 01 00:01:36
  TRACK 05 AUDIO
    TITLE "0:"
    INDEX 01 00:02:40
  TRACK 06 AUDIO
    TITLE "5:cjc137_3533"
    INDEX 01 00:02:49
  TRACK 07 AUDIO
    TITLE "0:"
    INDEX 01 00:04:03
  TRACK 08 AUDIO
    TITLE "4:cjc137_3534"
    INDEX 01 00:05:10
  TRACK 09 AUDIO
    TITLE "0:"
    INDEX 01 00:06:10
  TRACK 10 AUDIO
    TITLE "6:cjc137_3535"
    INDEX 01 00:06:16
  TRACK 11 AUDIO
    TITLE "0:"
    INDEX 01 00:06:73
  TRACK 12 AUDIO
    TITLE "5:cjc137_3536"
    INDEX 01 00:07:05
  TRACK 13 AUDIO
    TITLE "0:"
    INDEX 01 00:08:03
  TRACK 14 AUDIO
    TITLE "4:cjc137_3537"
    INDEX 01 00:09:10
  TRACK 15 AUDIO
    TITLE "0:"
    INDEX 01 00:10:31
  TRACK 16 AUDIO
    TITLE "6:cjc137_3538"
    INDEX 01 00:10:37
  TRACK 17 AUDIO
    TITLE "0:"
    INDEX 01 00:11:60
  TRACK 18 AUDIO
    TITLE "5:cjc137_3539"
    INDEX 01 00:11:68
  TRACK 19 AUDIO
    TITLE "0:"
    INDEX 01 00:13:16
  TRACK 20 AUDIO
    TITLE "4:cjc137_3540"
    INDEX 01 00:14:21
  TRACK 21 AUDIO
    TITLE "0:"
    INDEX 01 00:15:46
  TRACK 22 AUDIO
    TITLE "6:cjc137_3541"
    INDEX 01 00:15:62
  TRACK 23 AUDIO
    TITLE "0:"
    INDEX 01 00:17:39
  TRACK 24 AUDIO
    TITLE "5:cjc137_3542"
    INDEX 01 00:17:45
  TRACK 25 AUDIO
    TITLE "0:"
    INDEX 01 00:18:72
  TRACK 26 AUDIO
    TITLE "4:cjc137_3543"
    INDEX 01 00:20:08
  TRACK 27 AUDIO
    TITLE "0:"
    INDEX 01 00:21:19
  TRACK 28 AUDIO
    TITLE "6:cjc137_3544"
    INDEX 01 00:21:23
  TRACK 29 AUDIO
    TITLE "0:"
    INDEX 01 00:22:34
  TRACK 30 AUDIO
    TITLE "5:cjc137_3545"
    INDEX 01 00:22:40
  TRACK 31 AUDIO
    TITLE "0:"
    INDEX 01 00:23:48
  TRACK 32 AUDIO
    TITLE "4:cjc137_3546"
    INDEX 01 00:24:57
  TRACK 33 AUDIO
    TITLE "0:"
    INDEX 01 00:25:72
  TRACK 34 AUDIO
    TITLE "6:cjc137_3547"
    INDEX 01 00:26:03
  TRACK 35 AUDIO
    TITLE "0:"
    INDEX 01 00:27:24
  TRACK 36 AUDIO
    TITLE "5:cjc137_3548"
    INDEX 01 00:27:30
  TRACK 37 AUDIO
    TITLE "0:"
    INDEX 01 00:28:49
  TRACK 38 AUDIO
    TITLE "4:cjc137_3549"
    INDEX 01 00:29:56
  TRACK 39 AUDIO
    TITLE "0:"
    INDEX 01 00:30:57
  TRACK 40 AUDIO
    TITLE "6:cjc137_3550"
    INDEX 01 00:30:65
  TRACK 41 AUDIO
    TITLE "0:"
    INDEX 01 00:31:69
  TRACK 42 AUDIO
    TITLE "5:cjc137_3551"
    INDEX 01 00:32:03
  TRACK 43 AUDIO
    TITLE "0:"
    INDEX 01 00:33:03
  TRACK 44 AUDIO
    TITLE "4:cjc137_3552"
    INDEX 01 00:34:14
  TRACK 45 AUDIO
    TITLE "0:"
    INDEX 01 00:35:21
  TRACK 46 AUDIO
    TITLE "6:cjc137_3553"
    INDEX 01 00:35:33
  TRACK 47 AUDIO
    TITLE "0:"
    INDEX 01 00:36:48
  TRACK 48 AUDIO
    TITLE "5:cjc137_3554"
    INDEX 01 00:36:56
  TRACK 49 AUDIO
    TITLE "0:"
    INDEX 01 00:37:63
  TRACK 50 AUDIO
    TITLE "4:cjc137_3555"
    INDEX 01 00:39:02
  TRACK 51 AUDIO
    TITLE "0:"
    INDEX 01 00:40:15
  TRACK 52 AUDIO
    TITLE "6:cjc137_3556"
    INDEX 01 00:40:23
  TRACK 53 AUDIO
    TITLE "0:"
    INDEX 01 00:41:18
  TRACK 54 AUDIO
    TITLE "5:cjc137_3557"
    INDEX 01 00:41:30
  TRACK 55 AUDIO
    TITLE "0:"
    INDEX 01 00:42:43
  TRACK 56 AUDIO
    TITLE "4:cjc137_3558"
    INDEX 01 00:43:50
  TRACK 57 AUDIO
    TITLE "0:"
    INDEX 01 00:45:00
  TRACK 58 AUDIO
    TITLE "6:cjc137_3559"
    INDEX 01 00:45:14
  TRACK 59 AUDIO
    TITLE "0:"
    INDEX 01 00:46:07
  TRACK 60 AUDIO
    TITLE "5:cjc137_3560"
    INDEX 01 00:46:17
  TRACK 61 AUDIO
    TITLE "0:"
    INDEX 01 00:47:42
  TRACK 62 AUDIO
    TITLE "4:cjc137_3561"
    INDEX 01 00:48:55
  TRACK 63 AUDIO
    TITLE "0:"
    INDEX 01 00:49:67
  TRACK 64 AUDIO
    TITLE "6:cjc137_3562"
    INDEX 01 00:49:74
  TRACK 65 AUDIO
    TITLE "0:"
    INDEX 01 00:51:30
  TRACK 66 AUDIO
    TITLE "5:cjc137_3563"
    INDEX 01 00:51:36
  TRACK 67 AUDIO
    TITLE "0:"
    INDEX 01 00:52:45
  TRACK 68 AUDIO
    TITLE "4:cjc137_3564"
    INDEX 01 00:53:57
  TRACK 69 AUDIO
    TITLE "0:"
    INDEX 01 00:54:66
  TRACK 70 AUDIO
    TITLE "6:cjc137_3565"
    INDEX 01 00:55:03
  TRACK 71 AUDIO
    TITLE "0:"
    INDEX 01 00:56:12
  TRACK 72 AUDIO
    TITLE "5:cjc137_3566"
    INDEX 01 00:56:20
  TRACK 73 AUDIO
    TITLE "0:"
    INDEX 01 00:57:27
  TRACK 74 AUDIO
    TITLE "4:cjc137_3567"
    INDEX 01 00:58:38
  TRACK 75 AUDIO
    TITLE "0:"
    INDEX 01 00:59:51
  TRACK 76 AUDIO
    TITLE "6:cjc137_3568"
    INDEX 01 00:59:57
  TRACK 77 AUDIO
    TITLE "0:"
    INDEX 01 01:00:55
  TRACK 78 AUDIO
    TITLE "5:cjc137_3569"
    INDEX 01 01:00:60
  TRACK 79 AUDIO
    TITLE "0:"
    INDEX 01 01:01:72
  TRACK 80 AUDIO
    TITLE "4:cjc137_3570"
    INDEX 01 01:03:06
  TRACK 81 AUDIO
    TITLE "0:"
    INDEX 01 01:04:15
  TRACK 82 AUDIO
    TITLE "6:cjc137_3571"
    INDEX 01 01:04:29
  TRACK 83 AUDIO
    TITLE "0:"
    INDEX 01 01:05:13
  TRACK 84 AUDIO
    TITLE "5:cjc137_3572"
    INDEX 01 01:05:17
  TRACK 85 AUDIO
    TITLE "0:"
    INDEX 01 01:06:24
